<svg xmlns="http://www.w3.org/2000/svg" viewBox="0 0 127.9 111.91"><defs><style>.cls-1{fill:#fff;}.cls-2{fill:#f9fbfe;}.cls-3{opacity:0.25;}.cls-4{fill:#2869b3;}.cls-5{opacity:0.6;}</style></defs><g id="Layer_2" data-name="Layer 2"><g id="Layer_1-2" data-name="Layer 1"><polygon class="cls-1" points="3.97 18.26 6.15 9.83 13.97 3.79 26.72 2.83 36.18 7.1 59 3.79 87.3 7.07 94.32 6.08 109.78 1.74 119.46 5.86 125.08 19.43 118.76 33.67 120.53 59.06 110.48 77.21 78.9 101.84 67.23 106.6 60.52 106.6 35.29 92.04 15.54 71.56 6.15 56.86 9.14 38.58 10.47 35.4 5.27 26.9 3.97 18.26"/><polygon class="cls-2" points="3.97 18.26 6.15 9.83 13.97 3.79 26.72 2.83 36.18 7.1 59 3.79 87.3 7.07 94.32 6.08 109.78 1.74 119.46 5.86 125.08 19.43 118.76 33.67 120.53 59.06 110.48 77.21 78.9 101.84 67.23 106.6 60.52 106.6 35.29 92.04 15.54 71.56 6.15 56.86 9.14 38.58 10.47 35.4 5.27 26.9 3.97 18.26"/><g class="cls-3"><path class="cls-4" d="M120.41,58c-1.35-8.09-2.52-16.18-3.87-24.28l-6.05,7.54S120.27,57.94,120.41,58Z"/><path class="cls-4" d="M7.34,58c1.35-8.09,2.51-16.18,3.87-24.28,2,2.48,6.05,7.54,6.05,7.54S7.48,57.94,7.34,58Z"/><path class="cls-4" d="M65.56,89v3.36L82,95s-4.81-7.2-7-11.29C72.58,85.13,65.56,89,65.56,89Z"/><path class="cls-4" d="M62.1,89v3.36L45.71,95s4.8-7.2,7-11.29C55.08,85.13,62.1,89,62.1,89Z"/><path class="cls-4" d="M48.65,47.54c-.83.59-2.35,1.91-2.35,1.91a2,2,0,0,1,.08,1.71c-.86,4.16-1.81,7.39-2.68,11.55q-1.05,5.07-2.11,10.13l.54.2c2.9-7.21,5.58-14.68,8.49-21.89Z"/><path class="cls-4" d="M78.84,47.59c.84.6,2.35,1.92,2.35,1.92a2.08,2.08,0,0,0-.07,1.71c.86,4.16,1.81,7.39,2.67,11.55q1.06,5.06,2.12,10.12l-.54.21c-2.91-7.21-5.58-14.68-8.49-21.89Z"/><path class="cls-4" d="M108.85,9.83l-6,2.79S99,17.74,99,17.82c.19-.08.38-.14.56-.23l8.63-4.18c1.43-.69,3.38-1.61,4.81-2.31Z"/><polygon class="cls-4" points="113.58 25.5 111.2 28.91 116.54 33.75 116.73 33.02 113.58 25.5"/><path class="cls-4" d="M28.75,17.82c0-.08-3.87-5.2-3.87-5.2l-6-2.79L14.75,11.1l4.82,2.31,8.63,4.18C28.38,17.68,28.57,17.74,28.75,17.82Z"/><polygon class="cls-4" points="16.54 28.91 14.16 25.5 11.01 33.02 11.2 33.75 16.54 28.91"/><path class="cls-4" d="M88.92,78.89l2.56,13.34a96.56,96.56,0,0,0,12.71-12c.83-4,1.62-7.74,2.51-12C100.51,71.85,94.92,75.32,88.92,78.89Z"/><path class="cls-4" d="M38.75,78.89S27,71.79,21,68.14c.83,4.27,1.6,8.22,2.38,12.16,4.3,4,8.29,8.32,12.85,11.87l2.55-13.28Z"/><path class="cls-4" d="M46.07,95.88,46,95.6h0l1.7,4c4.17,2.38,8.43,4.57,12.69,6.73a8.91,8.91,0,0,0,7.1-.16c3.76-1.87,7.72-3.67,9.48-4.52,1-.51,2-1,2.93-1.59l1.73-4S46.27,96.06,46.07,95.88Z"/></g><g class="cls-5"><path class="cls-4" d="M27.67,40.44c1.58.29,5.18.94,7,1.24a.5.5,0,0,1,.34,0h0L36.7,41,41,40.86l6.12,3.87L48.72,47l4-1s-2.92-4-4.29-5.78A4.19,4.19,0,0,0,47,38.83c-1.5-.73-7.67-3.65-9.23-4.4a1.46,1.46,0,0,0-1.48,0c-2.42,1.48-7,4.39-8.74,5.49A.31.31,0,0,0,27.67,40.44Z"/><path class="cls-4" d="M99.83,40.5c-1.58.29-5.19.94-7,1.24,0,0-.17,0-.35,0h0L90.8,41l-4.28-.11-6.11,3.87-1.64,2.29-4-1s2.93-4,4.29-5.78a4.29,4.29,0,0,1,1.36-1.42c1.51-.73,7.68-3.65,9.24-4.4a1.46,1.46,0,0,1,1.48,0c2.42,1.48,7,4.39,8.74,5.48A.31.31,0,0,1,99.83,40.5Z"/><path class="cls-4" d="M52.67,46l-4,1-.07.52,2,3.61C51.3,49.45,52,47.74,52.67,46Z"/><path class="cls-4" d="M116.93,17,113,11.1l-2.5,17.18.72.63,2.37-3.41,2.81-3.81.77-3.43A1.64,1.64,0,0,0,116.93,17Z"/><path class="cls-4" d="M10.82,17a1.6,1.6,0,0,0-.23,1.26l.76,3.43,2.81,3.81,2.38,3.41.72-.63L14.75,11.1Z"/><path class="cls-4" d="M74.82,46.09l4,1,.07.51-2,3.62C76.2,49.5,75.51,47.8,74.82,46.09Z"/><path class="cls-4" d="M88.92,78.89l2.56,13.36-3,2.25s-2.35,1.66-4.58,3.09-4.13,2.46-4.13,2.46Z"/><path class="cls-4" d="M38.75,78.89,36.18,92.25l3,2.25s2.35,1.66,4.59,3.09,4.12,2.46,4.12,2.46Z"/></g><path class="cls-4" d="M66,91.75V89.46a.77.77,0,0,1,.54-1c.93-.3,8.46-4.75,8.46-4.75s2.59-7.61,3.32-9.7a.79.79,0,0,0-.23-.88l-4.16-3.38a3.4,3.4,0,0,0-2.21-.8C66.47,69,61.24,69,56,69a3.93,3.93,0,0,0-1.87.57c-.38.23-3.49,2.63-4.67,3.55a.8.8,0,0,0-.25.9l3.43,9.7s7.59,4.38,8.7,5c.38.2.31.66.31,1s0,1.93,0,1.93,0,.79-.61.91L45.71,95l.43,1H81.53L82,95,66.44,92.49C66.06,92.4,66,91.75,66,91.75Z"/><polygon class="cls-4" points="110.49 28.28 112.75 12.77 112.99 11.1 98.99 17.81 110.49 28.28"/><polygon class="cls-4" points="17.26 28.28 28.75 17.81 14.75 11.1 17.26 28.28"/><path class="cls-4" d="M86.52,40.92l-6.11,3.84L78.77,47l.07.51,2.35,1.9,1.08-.29c2-.51,5.21-1.43,5.21-1.43L91.76,45l.68-3.27L90.8,41Z"/><path class="cls-4" d="M48.65,47.51l.07-.51-1.63-2.28L41,40.88,36.7,41l-1.65.68.69,3.27L40,47.69s3.17.92,5.21,1.43l1.07.29Z"/><path class="cls-4" d="M127.9,17.47a17.59,17.59,0,0,0-.52-3c-.54-1.46-1.08-2.92-1.65-4.37a7.86,7.86,0,0,0-1.47-2.34c-1.43-1.58-2.93-3.07-4.46-4.54a9.55,9.55,0,0,0-3.27-2,22,22,0,0,0-8-1.24h-2.69a11.79,11.79,0,0,0-4.65.92c-1.86.81-3.73,1.6-5.61,2.4L91.35,5.1a1.2,1.2,0,0,1-.95.09l-1.15-.36-1.74-.54-.7-.22-2.69-.82-.06,0c-.91-.29-1.81-.58-2.72-.89l-.56-.17a18,18,0,0,0-4.53-.78c-.44,0-.88,0-1.33,0-6.24,0-12.47,0-18.71,0H51.32a8.62,8.62,0,0,0-1.24.09A7.84,7.84,0,0,0,49,1.68l-.65.2-1.08.33-.37.12-.53.16-2.49.79-6,1.88a1.57,1.57,0,0,1-1.19,0C34.09,4,31.46,2.89,28.82,1.8l-2.43-1A7.62,7.62,0,0,0,24.32.18,34.69,34.69,0,0,0,20.43,0H18.74A22.86,22.86,0,0,0,11,1.65,7.78,7.78,0,0,0,8.5,3.17C7.12,4.45,5.77,5.79,4.38,7.06A7.45,7.45,0,0,0,2.25,10C1.38,12.42.11,14.76,0,17.47V21a18.87,18.87,0,0,0,1.08,4.53l.13.4c.07.23.14.45.2.68a14.71,14.71,0,0,0,3,6.32c.32.37.61.76.89,1.15s.51.67.77,1a.88.88,0,0,1,.2.78l-.12.72C5.08,43.18,4,49.82,2.87,56.43A10.42,10.42,0,0,0,4,63.51C5.26,65.76,6.47,68,7.62,70.33a17.46,17.46,0,0,0,3.77,5.29c.94.86,1.86,1.75,2.77,2.64L16,80c2.85,2.69,5.65,5.45,8.46,8.19l.37.36c1.77,1.73,3.53,3.48,5.29,5.23l.57.57A20.06,20.06,0,0,0,33,96.48a37.74,37.74,0,0,0,4.52,2.79l1.19.66c2.17,1.23,4.38,2.41,6.58,3.58l3.46,1.86c4,2.16,7.18,4,10,5.82a4.22,4.22,0,0,0,1.81.66c.09,0,.87,0,1.87,0l.13,0h2.64c1,0,1.82,0,1.93,0a3.86,3.86,0,0,0,1.77-.52c3.13-2,6.36-3.74,9.39-5.37l2.61-1.39c3.65-2,7.43-4,11.09-6.1A22.22,22.22,0,0,0,96.57,95l1-1c.57-.59,1.14-1.18,1.73-1.75,1.32-1.27,2.63-2.56,3.94-3.85,1.12-1.1,2.24-2.21,3.36-3.3l1-1c.83-.8,1.65-1.61,2.49-2.4,1.41-1.34,2.8-2.69,4.2-4l2.64-2.55a20.55,20.55,0,0,0,3.7-5.44L121,69c.54-1,1-2,1.57-3.08s.89-1.8,1.36-2.69a9.13,9.13,0,0,0,1.14-5.78c-.47-3-.94-6-1.45-9.06-.32-1.93-.62-3.86-.92-5.78-.36-2.29-.71-4.58-1.11-6.85a.76.76,0,0,1,.16-.67c.36-.44.7-.89,1-1.35l.75-1a10.8,10.8,0,0,0,2.11-3.6c.21-.73.45-1.45.68-2.18a26.64,26.64,0,0,0,1.55-6.57V17.47Zm-8.65,9.33-.37.83a14.76,14.76,0,0,1-2.46,3.45,18.45,18.45,0,0,0-1.29,1.86l-.37,1.22,0,.22s2.44,15.68,3.78,23.7a12.24,12.24,0,0,1-.34,1.32c-3.1,8.33-9.17,14.41-15.32,19.79l-.28.36v.06A91.49,91.49,0,0,1,76.34,100l-2.22,1c-1.94.9-4.6,2.14-7.12,3.4a7.76,7.76,0,0,1-6,.17A179.18,179.18,0,0,1,39.33,92.29a78.82,78.82,0,0,1-10.07-8.91c-1.43-1.41-2.91-2.87-4.5-4.33l-.29-.16C17.22,72.81,12.22,66.28,9.21,59a2.47,2.47,0,0,1,0-.35c0-.27,0-.37,0-.35L9.88,54l0,0q.62-3.85,1.21-7.72c.62-4,1.24-7.94,1.9-11.91l0-.22-.25-.94-.14-.3c-1.4-2.11-6-9.33-6.43-13.62-.25-2.4,1.25-5.66,2.74-7.68,4.39-5.9,11.23-7.64,17-4.33a31.61,31.61,0,0,0,7.77,3.46,13.24,13.24,0,0,0,7.25-.17A56.32,56.32,0,0,1,59.51,7.7H62.3c9.31,0,18.94,0,27.85,4a3.22,3.22,0,0,0,2.54-.23c1.54-.64,3.08-1.38,4.57-2.09a40.48,40.48,0,0,1,9.49-3.63c3.14-.63,6.68.48,9.69,3a13.91,13.91,0,0,1,5.19,9.87C121.73,21.2,120.47,24.05,119.25,26.8Z"/></g></g></svg>