<svg xmlns="http://www.w3.org/2000/svg" viewBox="0 0 617.47 209.78"><defs><style>.cls-1{fill:#f9fbfe;}.cls-2{opacity:0.25;}.cls-3{fill:#2869b3;}.cls-4{opacity:0.6;}.cls-5{fill:none;}</style></defs><g id="Layer_2" data-name="Layer 2"><g id="Layer_1-2" data-name="Layer 1"><polygon class="cls-1" points="56.1 68.4 58.27 59.97 66.1 53.92 78.85 52.97 88.3 57.24 111.13 53.92 139.42 57.21 146.44 56.22 161.91 51.88 171.58 56 177.21 69.57 170.89 83.81 172.66 109.2 162.6 127.35 131.03 151.98 119.36 156.74 112.64 156.74 87.42 142.18 67.66 121.7 58.27 107 61.26 88.71 62.6 85.53 57.4 77.04 56.1 68.4"/><path class="cls-1" d="M212.54,152.6V56.66h36q11.05,0,18.58,4.12a27.74,27.74,0,0,1,11.38,11.31,33.93,33.93,0,0,1,3.86,16.33,33.81,33.81,0,0,1-3.88,16.39A27.67,27.67,0,0,1,267,116.08q-7.59,4.1-18.69,4.1H224.44V105.89h21.5a22,22,0,0,0,10.59-2.25,14.36,14.36,0,0,0,6.12-6.18,19.85,19.85,0,0,0,2-9,19.59,19.59,0,0,0-2-9,14,14,0,0,0-6.14-6.06,22.9,22.9,0,0,0-10.66-2.18H229.92V152.6Z"/><path class="cls-1" d="M326.62,154a34.84,34.84,0,0,1-18.27-4.63,31.31,31.31,0,0,1-12-13,42.43,42.43,0,0,1-4.24-19.49,42.69,42.69,0,0,1,4.24-19.53,31.2,31.2,0,0,1,12-13,38.36,38.36,0,0,1,36.54,0,31.24,31.24,0,0,1,12,13,42.69,42.69,0,0,1,4.24,19.53,42.43,42.43,0,0,1-4.24,19.49,31.35,31.35,0,0,1-12,13A34.89,34.89,0,0,1,326.62,154Zm.09-13.58a14.61,14.61,0,0,0,9.56-3.16,18.91,18.91,0,0,0,5.73-8.51,38.4,38.4,0,0,0,0-23.86,19,19,0,0,0-5.73-8.55,14.47,14.47,0,0,0-9.56-3.19A14.72,14.72,0,0,0,317,96.34a18.88,18.88,0,0,0-5.76,8.55,38.4,38.4,0,0,0,0,23.86,18.81,18.81,0,0,0,5.76,8.51A14.86,14.86,0,0,0,326.71,140.42Z"/><path class="cls-1" d="M393.72,56.66V152.6h-17V56.66Z"/><path class="cls-1" d="M428.86,56.66V152.6h-17V56.66Z"/><path class="cls-1" d="M468,154.05a29.54,29.54,0,0,1-12.29-2.46,19.76,19.76,0,0,1-8.62-7.28,21.26,21.26,0,0,1-3.17-11.9,20.25,20.25,0,0,1,2.25-10.07,17.47,17.47,0,0,1,6.14-6.38,31.56,31.56,0,0,1,8.78-3.63,75,75,0,0,1,10.14-1.8c4.22-.44,7.64-.83,10.26-1.19a14.93,14.93,0,0,0,5.74-1.69,4,4,0,0,0,1.81-3.58v-.29c0-3.52-1.05-6.26-3.14-8.19s-5.11-2.91-9-2.91q-6.24,0-9.86,2.72a13.35,13.35,0,0,0-4.9,6.42l-15.83-2.25a25.41,25.41,0,0,1,6.18-11,27.23,27.23,0,0,1,10.54-6.65,40.75,40.75,0,0,1,13.77-2.22,45,45,0,0,1,10.36,1.21,29.58,29.58,0,0,1,9.41,4,20.75,20.75,0,0,1,6.87,7.56,24.83,24.83,0,0,1,2.59,12V152.6h-16.3v-9.89h-.56a20.45,20.45,0,0,1-11.31,9.77A27.91,27.91,0,0,1,468,154.05Zm4.41-12.46a18.25,18.25,0,0,0,8.85-2,14.91,14.91,0,0,0,5.79-5.41,14,14,0,0,0,2-7.35v-8.48a8,8,0,0,1-2.69,1.21,38.65,38.65,0,0,1-4.24,1c-1.56.28-3.11.53-4.64.75l-4,.56a29.45,29.45,0,0,0-6.79,1.69,11.32,11.32,0,0,0-4.73,3.25,9.07,9.07,0,0,0,1.68,12.44A14.91,14.91,0,0,0,472.36,141.59Z"/><path class="cls-1" d="M523.73,152.6v-72h16.44v12h.75A18,18,0,0,1,547.69,83a18.51,18.51,0,0,1,11-3.4c.93,0,2,0,3.16.12a22.9,22.9,0,0,1,2.93.35v15.6a18.39,18.39,0,0,0-3.4-.68,35,35,0,0,0-4.47-.3,17.17,17.17,0,0,0-8.32,2,14.78,14.78,0,0,0-5.78,5.5,15.42,15.42,0,0,0-2.11,8.11v42.3Z"/><g class="cls-2"><path class="cls-3" d="M173.11,107c-1.35-8.1-2.51-16.19-3.87-24.29l-6.05,7.55S173,106.87,173.11,107Z"/><path class="cls-3" d="M60,107c1.35-8.1,2.51-16.19,3.87-24.29l6,7.55S60.18,106.87,60,107Z"/><path class="cls-3" d="M118.27,137.91v3.36L134.66,144s-4.81-7.2-7-11.29C125.28,134.07,118.27,137.91,118.27,137.91Z"/><path class="cls-3" d="M114.8,137.91v3.36L98.41,144s4.81-7.2,7-11.29C107.78,134.07,114.8,137.91,114.8,137.91Z"/><path class="cls-3" d="M101.35,96.47c-.83.59-2.34,1.91-2.34,1.91a2.09,2.09,0,0,1,.07,1.72c-.86,4.15-1.81,7.39-2.68,11.54q-1.05,5.07-2.11,10.13l.54.2c2.9-7.21,5.58-14.68,8.49-21.89Z"/><path class="cls-3" d="M131.55,96.53c.83.59,2.34,1.91,2.34,1.91a2.08,2.08,0,0,0-.07,1.71c.86,4.16,1.81,7.39,2.68,11.55q1,5.07,2.11,10.12l-.54.21c-2.91-7.21-5.58-14.68-8.49-21.89Z"/><path class="cls-3" d="M161.55,58.76l-6,2.79s-3.86,5.12-3.86,5.2c.18-.08.37-.14.55-.23l8.63-4.18c1.44-.69,3.38-1.61,4.81-2.31Z"/><polygon class="cls-3" points="166.28 74.43 163.91 77.84 169.24 82.69 169.43 81.96 166.28 74.43"/><path class="cls-3" d="M81.45,66.75c0-.08-3.86-5.2-3.86-5.2l-6-2.79L67.45,60l4.82,2.31,8.63,4.18C81.08,66.61,81.27,66.67,81.45,66.75Z"/><polygon class="cls-3" points="69.24 77.84 66.86 74.43 63.72 81.96 63.91 82.69 69.24 77.84"/><path class="cls-3" d="M141.62,127.82l2.56,13.34a96.56,96.56,0,0,0,12.71-12c.83-4,1.63-7.74,2.51-12.05C153.21,120.78,147.62,124.25,141.62,127.82Z"/><path class="cls-3" d="M91.45,127.82s-11.73-7.1-17.78-10.75c.83,4.27,1.61,8.22,2.38,12.16,4.3,4,8.29,8.32,12.85,11.87l2.55-13.28Z"/><path class="cls-3" d="M98.77,144.81l-.11-.28h0l1.71,3.95c4.16,2.38,8.43,4.57,12.68,6.73a8.89,8.89,0,0,0,7.11-.16c3.75-1.87,7.71-3.67,9.48-4.52,1-.51,2-1,2.92-1.59l1.73-4S99,145,98.77,144.81Z"/></g><g class="cls-4"><path class="cls-3" d="M80.37,89.37c1.58.29,5.18.94,7,1.24,0,0,.17,0,.35,0h0l1.65-.69,4.28-.11,6.11,3.87L101.43,96l3.94-1s-2.92-4-4.29-5.77a4.19,4.19,0,0,0-1.35-1.43c-1.51-.73-7.68-3.64-9.24-4.39A1.43,1.43,0,0,0,89,83.32c-2.42,1.48-7,4.39-8.74,5.49A.31.31,0,0,0,80.37,89.37Z"/><path class="cls-3" d="M152.53,89.43c-1.58.29-5.18.94-7.05,1.24,0,0-.17,0-.35,0h0L143.5,90l-4.28-.11-6.11,3.87L131.47,96l-3.94-1s2.92-4,4.29-5.78a4.16,4.16,0,0,1,1.35-1.42c1.51-.73,7.68-3.65,9.24-4.4a1.46,1.46,0,0,1,1.48,0c2.42,1.48,7,4.39,8.74,5.48A.31.31,0,0,1,152.53,89.43Z"/><path class="cls-3" d="M105.37,95l-3.94,1-.08.52c.69,1.25,1.29,2.36,2,3.61C104,98.38,104.69,96.67,105.37,95Z"/><path class="cls-3" d="M169.63,65.93,165.69,60l-2.5,17.18.72.63,2.37-3.41,2.81-3.81.77-3.43A1.64,1.64,0,0,0,169.63,65.93Z"/><path class="cls-3" d="M63.52,65.93a1.6,1.6,0,0,0-.23,1.26l.77,3.43,2.8,3.81,2.38,3.41.72-.63L67.45,60Z"/><path class="cls-3" d="M127.53,95l3.94,1,.08.52c-.69,1.25-1.29,2.36-2,3.61C128.9,98.44,128.21,96.73,127.53,95Z"/><path class="cls-3" d="M141.62,127.82l2.56,13.36-3,2.25s-2.35,1.66-4.58,3.09-4.13,2.46-4.13,2.46Z"/><path class="cls-3" d="M91.45,127.82l-2.57,13.36,3,2.25s2.35,1.66,4.59,3.09,4.12,2.46,4.12,2.46Z"/></g><path class="cls-3" d="M118.7,140.68v-2.29a.77.77,0,0,1,.54-1c.93-.3,8.46-4.75,8.46-4.75s2.6-7.61,3.33-9.69a.82.82,0,0,0-.24-.89l-4.16-3.38a3.4,3.4,0,0,0-2.21-.8H108.7a3.93,3.93,0,0,0-1.87.57c-.38.23-3.49,2.63-4.66,3.55a.79.79,0,0,0-.26.9l3.43,9.71s7.59,4.37,8.7,5c.38.2.31.66.31,1s0,1.93,0,1.93,0,.79-.61.91L98.41,144l.43,1h35.39l.43-1-15.52-2.54C118.76,141.34,118.7,140.68,118.7,140.68Z"/><polygon class="cls-3" points="163.19 77.21 165.45 61.7 165.69 60.03 151.7 66.74 163.19 77.21"/><polygon class="cls-3" points="69.96 77.21 81.45 66.74 67.45 60.03 69.96 77.21"/><path class="cls-3" d="M139.22,89.85l-6.11,3.84L131.47,96l.08.51,2.34,1.9L135,98.1c2-.52,5.21-1.44,5.21-1.44l4.28-2.75.69-3.27L143.5,90Z"/><path class="cls-3" d="M101.35,96.44l.08-.51-1.64-2.28-6.11-3.84-4.28.11-1.65.68.69,3.27,4.28,2.76s3.17.91,5.21,1.43l1.08.28Z"/><path class="cls-3" d="M180.6,66.4a16.64,16.64,0,0,0-.52-3c-.54-1.46-1.08-2.92-1.65-4.37A7.59,7.59,0,0,0,177,56.72c-1.43-1.58-2.93-3.07-4.46-4.54a9.55,9.55,0,0,0-3.27-2,22,22,0,0,0-8-1.24h-2.7a11.79,11.79,0,0,0-4.65.92c-1.86.81-3.73,1.6-5.6,2.4L144.05,54a1.2,1.2,0,0,1-1,.09L142,53.76l-1.74-.54-.7-.21-2.69-.83-.06,0c-.91-.29-1.81-.58-2.72-.89l-.56-.17a18,18,0,0,0-4.53-.78c-.44,0-.88,0-1.33,0-6.24,0-12.47,0-18.71,0H104a8.42,8.42,0,0,0-1.24.09,8,8,0,0,0-1.08.23l-.65.2-1.08.33-.37.12-.53.16-2.49.79-6,1.88a1.57,1.57,0,0,1-1.19,0c-2.62-1.13-5.26-2.22-7.9-3.32l-2.43-1A7.55,7.55,0,0,0,77,49.11a35,35,0,0,0-3.9-.15c-.56,0-1.12,0-1.69,0a22.39,22.39,0,0,0-7.78,1.61A7.68,7.68,0,0,0,61.2,52.1c-1.38,1.28-2.72,2.62-4.12,3.9A7.22,7.22,0,0,0,55,58.89c-.88,2.46-2.15,4.8-2.26,7.51v3.52a18.89,18.89,0,0,0,1.07,4.52l.13.4c.07.23.14.45.2.68a14.61,14.61,0,0,0,3,6.32c.31.37.6.76.89,1.15s.5.67.76,1a.85.85,0,0,1,.2.77l-.11.72c-1.06,6.64-2.12,13.27-3.28,19.89a10.4,10.4,0,0,0,1.17,7.07c1.23,2.25,2.43,4.52,3.58,6.82a17.46,17.46,0,0,0,3.77,5.29c.94.86,1.86,1.75,2.77,2.64L68.68,129c2.85,2.7,5.66,5.45,8.47,8.19l.36.36c1.78,1.73,3.54,3.48,5.29,5.23l.57.57a21.91,21.91,0,0,0,2.28,2.11,36.49,36.49,0,0,0,4.52,2.79l1.19.66c2.17,1.23,4.38,2.41,6.58,3.58l3.46,1.86c4,2.17,7.18,4,10,5.83a4.25,4.25,0,0,0,1.8.65c.09,0,.87,0,1.87,0a.61.61,0,0,1,.13,0h2.65c1,0,1.81,0,1.92,0a3.9,3.9,0,0,0,1.78-.52c3.12-2,6.35-3.74,9.39-5.37l2.6-1.39c3.65-2,7.43-4,11.09-6.1a22.22,22.22,0,0,0,4.62-3.48l1-1q.85-.88,1.74-1.74c1.32-1.28,2.62-2.57,3.93-3.86,1.12-1.1,2.24-2.21,3.36-3.3l1-1,2.48-2.4c1.41-1.33,2.8-2.69,4.2-4l2.64-2.55a20.55,20.55,0,0,0,3.7-5.44l.38-.7c.54-1,1.05-2,1.57-3.09s.89-1.79,1.36-2.68a9.16,9.16,0,0,0,1.14-5.79c-.47-3-.94-6-1.45-9.06-.32-1.93-.62-3.85-.92-5.78-.36-2.29-.71-4.58-1.11-6.85a.76.76,0,0,1,.16-.67c.36-.44.7-.89,1.05-1.35l.74-1a10.63,10.63,0,0,0,2.11-3.6c.21-.73.45-1.45.68-2.18a26.56,26.56,0,0,0,1.55-6.56V66.4ZM172,75.73l-.36.83A15.12,15.12,0,0,1,169.12,80a18.86,18.86,0,0,0-1.29,1.87l-.37,1.21,0,.22S169.94,99,171.28,107a12.24,12.24,0,0,1-.34,1.32c-3.1,8.33-9.17,14.41-15.32,19.79l-.28.36v.06A91.79,91.79,0,0,1,129.05,149l-2.23,1c-1.94.9-4.6,2.14-7.12,3.4a7.72,7.72,0,0,1-6,.17A179.18,179.18,0,0,1,92,141.22,78.82,78.82,0,0,1,82,132.31c-1.43-1.41-2.9-2.87-4.49-4.33l-.3-.16c-7.25-6.08-12.25-12.61-15.26-19.88,0-.07,0-.26,0-.36,0-.27,0-.37,0-.34l.63-4.35,0,0q.62-3.85,1.21-7.72c.62-4,1.24-7.94,1.9-11.91l0-.22-.25-.93-.14-.31c-1.4-2.11-6-9.33-6.43-13.62-.25-2.39,1.25-5.66,2.74-7.68,4.39-5.89,11.23-7.63,17-4.32a32.15,32.15,0,0,0,7.77,3.45,13.24,13.24,0,0,0,7.25-.16,56.05,56.05,0,0,1,18.57-2.89H115c9.31,0,18.94,0,27.85,4a3.22,3.22,0,0,0,2.54-.23c1.54-.64,3.08-1.37,4.58-2.09a40.25,40.25,0,0,1,9.48-3.63c3.14-.63,6.68.48,9.69,3a13.89,13.89,0,0,1,5.19,9.86C174.43,70.13,173.17,73,172,75.73Z"/><rect class="cls-5" width="617.47" height="209.78"/></g></g></svg>