<svg xmlns="http://www.w3.org/2000/svg" viewBox="0 0 404.44 432.53"><defs><style>.cls-1{fill:#f9fbfe;}.cls-2{opacity:0.25;}.cls-3{fill:#2869b3;}.cls-4{opacity:0.6;}.cls-5{fill:#f9fcfe;}.cls-6{fill:none;}</style></defs><g id="Layer_2" data-name="Layer 2"><g id="Layer_1-2" data-name="Layer 1"><polygon class="cls-1" points="78.1 86.14 82.58 68.77 98.7 56.32 124.95 54.35 144.43 63.16 191.44 56.32 249.72 63.09 264.17 61.04 296.02 52.12 314.68 63.39 325.93 88.87 314.52 117.87 318.17 170.17 294.12 207.36 232.43 258.27 208.39 268.09 194.56 268.09 142.6 238.09 101.92 195.91 82.58 165.64 88.73 127.97 91.48 121.42 80.77 103.93 78.1 86.14"/><g class="cls-2"><path class="cls-3" d="M312.54,165.62c-2.71-16.2-5-32.4-7.74-48.6l-12.12,15.09S312.25,165.42,312.54,165.62Z"/><path class="cls-3" d="M86.23,165.62c2.7-16.2,5-32.4,7.73-48.6l12.12,15.09S86.51,165.42,86.23,165.62Z"/><path class="cls-3" d="M202.77,227.56v6.72l32.8,5.38s-9.62-14.4-13.93-22.59C216.81,219.86,202.77,227.56,202.77,227.56Z"/><path class="cls-3" d="M195.83,227.56v6.72L163,239.66s9.62-14.4,13.94-22.59C181.78,219.86,195.83,227.56,195.83,227.56Z"/><path class="cls-3" d="M168.92,144.61c-1.67,1.19-4.7,3.82-4.7,3.82s.78,1.07.14,3.44c-1.72,8.32-3.62,14.79-5.35,23.11l-4.23,20.26,1.08.41c5.81-14.42,11.17-29.38,17-43.81Z"/><path class="cls-3" d="M229.34,144.72c1.67,1.2,4.7,3.83,4.7,3.83s-.78,1.07-.14,3.43c1.71,8.33,3.62,14.79,5.35,23.11l4.23,20.27-1.08.4c-5.81-14.42-11.17-29.38-17-43.8Z"/><path class="cls-3" d="M289.41,69.13l-12,5.6S269.68,85,269.68,85.12c.36-.15.74-.28,1.1-.45q8.64-4.19,17.28-8.37c2.87-1.39,6.76-3.22,9.63-4.62Z"/><polygon class="cls-3" points="298.87 100.5 294.12 107.33 304.8 117.02 305.18 115.56 298.87 100.5"/><path class="cls-3" d="M129.08,85.12c0-.16-7.74-10.39-7.74-10.39l-12-5.6-8.29,2.55c2.87,1.4,6.76,3.23,9.64,4.62q8.63,4.2,17.27,8.37C128.33,84.84,128.71,85,129.08,85.12Z"/><polygon class="cls-3" points="104.64 107.33 99.88 100.5 93.58 115.56 93.96 117.02 104.64 107.33"/><path class="cls-3" d="M249.5,207.36l5.13,26.7a194.08,194.08,0,0,0,25.45-24c1.65-8,3.25-15.5,5-24.13C272.71,193.27,261.53,200.21,249.5,207.36Z"/><path class="cls-3" d="M149.09,207.36c0-.06-23.47-14.21-35.59-21.51,1.67,8.54,3.22,16.44,4.76,24.34,8.61,8,16.6,16.65,25.72,23.75l5.11-26.58Z"/><path class="cls-3" d="M163.75,241.36l-.23-.55h-.05l3.41,7.92c8.33,4.75,16.87,9.15,25.39,13.46,3.88,2,10.23,1.66,14.22-.33,7.5-3.73,15.44-7.33,19-9q3-1.55,5.86-3.18l3.45-8.06S164.15,241.73,163.75,241.36Z"/></g><g class="cls-4"><path class="cls-3" d="M126.91,130.41c3.17.57,10.38,1.87,14.12,2.47a1.12,1.12,0,0,1,.69,0l0,0,3.29-1.38,8.57-.22L165.78,139l3.28,4.59,7.9-2s-5.85-8.08-8.59-11.56c-.8-1-1.42-2.23-2.71-2.85-3-1.46-15.36-7.3-18.49-8.8a2.93,2.93,0,0,0-3-.09c-4.83,3-14,8.8-17.49,11A.63.63,0,0,0,126.91,130.41Z"/><path class="cls-3" d="M271.35,130.52c-3.17.58-10.38,1.88-14.12,2.47a1.25,1.25,0,0,0-.69,0l0,0-3.29-1.38-8.57-.22-12.23,7.74-3.28,4.59-7.9-2s5.85-8.09,8.59-11.56c.8-1,1.42-2.23,2.71-2.85,3-1.46,15.36-7.3,18.49-8.8a2.93,2.93,0,0,1,3-.09c4.83,3,14,8.79,17.49,11A.62.62,0,0,1,271.35,130.52Z"/><path class="cls-3" d="M177,141.6l-7.9,2-.14,1c1.36,2.51,2.56,4.72,3.93,7.23Z"/><path class="cls-3" d="M305.57,83.49l-7.88-11.81-5,34.38,1.44,1.27,4.75-6.83,5.62-7.63L306,86A3.22,3.22,0,0,0,305.57,83.49Z"/><path class="cls-3" d="M93.18,83.49A3.26,3.26,0,0,0,92.72,86l1.54,6.87,5.62,7.63,4.76,6.83,1.43-1.27-5-34.38Z"/><path class="cls-3" d="M221.3,141.71l7.9,2,.14,1c-1.36,2.51-2.56,4.73-3.93,7.24Z"/><path class="cls-3" d="M249.5,207.36l5.14,26.74-5.93,4.5s-4.7,3.32-9.17,6.19-8.26,4.93-8.26,4.93Z"/><path class="cls-3" d="M149.09,207.36,144,234.1l5.93,4.5s4.7,3.32,9.17,6.19,8.26,4.93,8.26,4.93Z"/></g><path class="cls-3" d="M203.63,233.1v-4.58a1.55,1.55,0,0,1,1.08-2c1.86-.6,16.94-9.5,16.94-9.5s5.18-15.23,6.64-19.41a1.6,1.6,0,0,0-.47-1.76c-1.83-1.51-6.12-5-8.32-6.78a6.79,6.79,0,0,0-4.43-1.59q-15.72,0-31.44,0a7.82,7.82,0,0,0-3.74,1.15c-.76.46-7,5.27-9.34,7.09a1.61,1.61,0,0,0-.51,1.81L176.89,217s15.19,8.75,17.42,9.95c.75.41.61,1.33.62,2s0,3.86,0,3.86,0,1.58-1.21,1.83L163,239.65l.87,2h70.84l.84-2-31-5.07C203.76,234.41,203.63,233.1,203.63,233.1Z"/><polygon class="cls-3" points="292.68 106.06 297.2 75.02 297.69 71.68 269.68 85.1 292.68 106.06"/><polygon class="cls-3" points="106.07 106.06 129.08 85.1 101.06 71.68 106.07 106.06"/><path class="cls-3" d="M229.34,144.63l-.14-1,3.28-4.56,12.23-7.69,8.57.22,3.29,1.37-1.38,6.53L246.62,145s-6.34,1.84-10.42,2.86c-1.85.47-2.16.57-2.16.57Z"/><path class="cls-3" d="M168.92,144.55l.14-1L165.78,139l-12.23-7.69-8.57.22-3.29,1.37,1.38,6.53,8.57,5.52s6.34,1.84,10.42,2.87c1.85.46,2.16.56,2.16.56Z"/><path class="cls-3" d="M94,117Z"/><path class="cls-3" d="M326.48,78.47c-1.07-2.92-2.15-5.84-3.29-8.74a15.59,15.59,0,0,0-2.95-4.68c-2.85-3.16-5.87-6.14-8.92-9.08a19.18,19.18,0,0,0-6.56-4,43.92,43.92,0,0,0-16.05-2.48h-4.1a21.86,21.86,0,0,0-8.71,1.71c-6.63,2.89-13.3,5.66-19.93,8.52a4.48,4.48,0,0,1-3.26.24c-6.14-2-12.33-3.73-18.44-5.8a37.52,37.52,0,0,0-12.44-2c-16,.12-32,0-48,0a15.14,15.14,0,0,0-4.24.6c-2.46.73-4.89,1.52-7.34,2.29-5,1.59-10.08,3.16-15.11,4.76a5.14,5.14,0,0,1-3.74-.14c-7-3-14-5.9-21-8.82a13.32,13.32,0,0,0-3.66-1.09,74,74,0,0,0-9.76-.27,45.31,45.31,0,0,0-15.58,3.22,15.28,15.28,0,0,0-4.92,3c-2.77,2.57-5.46,5.25-8.25,7.8a14.63,14.63,0,0,0-4.25,5.8c-1.75,4.92-4.29,9.6-4.51,15V90a40.84,40.84,0,0,0,2.34,9.51q.25.77.45,1.56A28.36,28.36,0,0,0,80,113c1.19,1.4,2.23,2.94,3.39,4.38a3.9,3.9,0,0,1,.85,3.24c-2.23,14-4.46,28-6.89,42a19.31,19.31,0,0,0,2.13,13q3.78,6.88,7.32,13.93A34.11,34.11,0,0,0,94,199.74c3.18,2.91,6.21,6,9.33,9,6.05,5.75,12,11.59,18,17.43q5.42,5.3,10.78,10.66a58,58,0,0,0,5.58,5.28c3.57,2.71,7.53,4.69,11.38,6.87,6.74,3.81,13.59,7.37,20.38,11.06,6.94,3.77,13.8,7.67,20.47,11.93a7.09,7.09,0,0,0,2.91,1.05,31,31,0,0,1,3.84.48h5.27c1.2-.22,2.42-.23,3.63-.37a6.81,6.81,0,0,0,2.95-.8c6.26-3.94,12.71-7.5,19.2-11,9.29-5,18.64-9.88,27.76-15.21a43,43,0,0,0,9-6.78c1.87-1.88,3.7-3.8,5.6-5.64,5-4.82,9.87-9.72,14.82-14.55,2.37-2.31,4.72-4.63,7.1-6.9,4.66-4.43,9.26-8.93,13.9-13.39,3.49-3.37,5.62-7.76,7.91-12,2.07-3.85,3.9-7.85,5.95-11.72a16.58,16.58,0,0,0,2.09-10.46c-.95-6.14-1.9-12.28-2.93-18.41-1.44-8.55-2.65-17.14-4.12-25.69a3.58,3.58,0,0,1,.75-3c.95-1.18,1.85-2.41,2.77-3.62,1.83-2.41,3.88-4.71,4.77-7.74,1.66-5.68,4-11.17,4.46-17.19V84.43C327.18,82.45,327.19,80.4,326.48,78.47Zm-12.8,24.34-.73,1.67a31.62,31.62,0,0,1-5.34,7.55,38.8,38.8,0,0,0-2.43,3.53L304.8,117s5,32.39,7.74,48.59a29.45,29.45,0,0,1-.86,3.4c-6.46,17.38-19,30-31.6,41l-.1.08-.06.28a187.93,187.93,0,0,1-54.38,42.43c-1.12.54-2.69,1.27-4.55,2.14-3.93,1.83-9.31,4.35-14.43,6.9-4,2-10.28,2.16-13.89.33-15.41-7.81-30.38-15.61-44.25-25.27C141,231.71,134.2,225,127.69,218.56c-2.89-2.85-5.87-5.81-8.88-8.6l-.11-.07a1.24,1.24,0,0,0-.31-.1c-15.15-12.65-25.6-26.28-31.94-41.67a3.69,3.69,0,0,1-.06-1.58c0-.31.06-.62.06-.85l.09-.55c-.18.29-.3.47-.31.48,2.7-16.2,5-32.4,7.73-48.6l-.38-1.46c-2.22-3.35-12.44-19.1-13.42-28.67-.57-5.48,2.6-12.53,6-17.08,9.53-12.84,24.42-16.6,37.05-9.36,4.49,2.57,9.75,5.43,15.31,6.83A25,25,0,0,0,152.16,67c11.78-4.08,24.54-6,39-6h4.92c19.15,0,38.94.06,57.42,8.31.82.36,2,.21,3.69-.48,3.09-1.29,6.19-2.78,9.19-4.22,6.37-3.06,13-6.23,19.73-7.54,7-1.35,14.73,1,21.28,6.51,6.79,5.69,11,13.76,11.29,21.59C318.92,91,316.26,97,313.68,102.81Z"/><path class="cls-3" d="M249.34,135.63Z"/><path class="cls-5" d="M56.11,381.86v-79.6H86q9.17,0,15.41,3.42a23,23,0,0,1,9.44,9.39,30.23,30.23,0,0,1,0,27.15,22.87,22.87,0,0,1-9.52,9.34Q95,355,85.76,355H66V343.11H83.82a18.17,18.17,0,0,0,8.78-1.87,11.84,11.84,0,0,0,5.07-5.13,16.24,16.24,0,0,0,1.66-7.5,16,16,0,0,0-1.66-7.46,11.52,11.52,0,0,0-5.09-5,18.88,18.88,0,0,0-8.84-1.81H70.53v67.55Z"/><path class="cls-5" d="M150.75,383a29,29,0,0,1-15.16-3.85,25.93,25.93,0,0,1-9.93-10.77,39,39,0,0,1,0-32.37,25.91,25.91,0,0,1,9.93-10.81,31.77,31.77,0,0,1,30.32,0A26,26,0,0,1,175.84,336a39.07,39.07,0,0,1,0,32.37,26.06,26.06,0,0,1-9.93,10.77A29,29,0,0,1,150.75,383Zm.08-11.27a12.08,12.08,0,0,0,7.93-2.63,15.75,15.75,0,0,0,4.76-7.05,32,32,0,0,0,0-19.81,15.88,15.88,0,0,0-4.76-7.09,12,12,0,0,0-7.93-2.64,12.28,12.28,0,0,0-8.07,2.64,15.76,15.76,0,0,0-4.78,7.09,32,32,0,0,0,0,19.81,15.63,15.63,0,0,0,4.78,7.05A12.33,12.33,0,0,0,150.83,371.76Z"/><path class="cls-5" d="M206.43,302.26v79.6H192.36v-79.6Z"/><path class="cls-5" d="M235.58,302.26v79.6H221.51v-79.6Z"/><path class="cls-5" d="M268,383.07a24.58,24.58,0,0,1-10.2-2,16.47,16.47,0,0,1-7.15-6,17.63,17.63,0,0,1-2.63-9.87,16.9,16.9,0,0,1,1.87-8.36,14.4,14.4,0,0,1,5.09-5.28,26.19,26.19,0,0,1,7.29-3,61.24,61.24,0,0,1,8.41-1.49q5.25-.54,8.52-1a12.51,12.51,0,0,0,4.76-1.4,3.3,3.3,0,0,0,1.49-3v-.23a8.82,8.82,0,0,0-2.6-6.8q-2.61-2.42-7.5-2.41-5.17,0-8.18,2.25a11.19,11.19,0,0,0-4.07,5.33L250,337.86a21,21,0,0,1,5.13-9.11,22.59,22.59,0,0,1,8.74-5.52,33.83,33.83,0,0,1,11.43-1.85,37.4,37.4,0,0,1,8.59,1,24.62,24.62,0,0,1,7.81,3.33,17.11,17.11,0,0,1,5.7,6.27,20.69,20.69,0,0,1,2.15,9.92v39.95H286v-8.2h-.47A16.83,16.83,0,0,1,282,378.3a17.17,17.17,0,0,1-5.8,3.46A23.12,23.12,0,0,1,268,383.07Zm3.65-10.34A15.23,15.23,0,0,0,279,371a12.47,12.47,0,0,0,4.8-4.49,11.57,11.57,0,0,0,1.69-6.1v-7a6.6,6.6,0,0,1-2.23,1,35.46,35.46,0,0,1-3.52.82c-1.3.23-2.58.44-3.85.62l-3.3.47a24.77,24.77,0,0,0-5.64,1.39,9.33,9.33,0,0,0-3.92,2.71,7.52,7.52,0,0,0,1.4,10.31A12.26,12.26,0,0,0,271.66,372.73Z"/><path class="cls-5" d="M314.29,381.86v-59.7h13.64v9.95h.62a15,15,0,0,1,5.62-8,15.42,15.42,0,0,1,9.11-2.81c.78,0,1.65,0,2.63.09a22.61,22.61,0,0,1,2.43.29v12.95a15.43,15.43,0,0,0-2.82-.57,30.15,30.15,0,0,0-3.71-.25,14.25,14.25,0,0,0-6.9,1.65,12.28,12.28,0,0,0-4.8,4.57,12.75,12.75,0,0,0-1.75,6.72v35.1Z"/><rect class="cls-6" width="404.44" height="432.53"/></g></g></svg>