<svg xmlns="http://www.w3.org/2000/svg" viewBox="0 0 256 224"><defs><style>.cls-1{fill:#f9fbfe;}.cls-2{opacity:0.25;}.cls-3{fill:#2869b3;}.cls-4{opacity:0.6;}</style></defs><g id="Layer_2" data-name="Layer 2"><g id="Layer_1-2" data-name="Layer 1"><polygon class="cls-1" points="4.09 36.97 8.55 19.67 24.62 7.28 50.76 5.31 70.16 14.09 116.98 7.28 175.03 14.01 189.43 11.98 221.15 3.09 241 11.53 252.54 39.37 239.57 68.58 243.21 120.67 222.58 157.9 157.81 208.42 133.87 218.2 120.09 218.2 68.34 188.32 27.82 146.3 8.55 116.16 14.69 78.64 17.43 72.12 6.76 54.7 4.09 36.97"/><g class="cls-2"><path class="cls-3" d="M241,116.16c-2.71-16.2-5-32.4-7.74-48.6L221.15,82.65S240.72,116,241,116.16Z"/><path class="cls-3" d="M14.69,116.16c2.71-16.2,5-32.4,7.74-48.6L34.54,82.65S15,116,14.69,116.16Z"/><path class="cls-3" d="M131.23,178.1v6.72L164,190.2s-9.62-14.41-13.94-22.59C145.28,170.4,131.23,178.1,131.23,178.1Z"/><path class="cls-3" d="M124.29,178.1v6.72L91.48,190.2s9.62-14.41,13.94-22.59C110.24,170.4,124.29,178.1,124.29,178.1Z"/><path class="cls-3" d="M97.38,95.15c-1.67,1.19-4.7,3.82-4.7,3.82s.78,1.07.15,3.44c-1.72,8.32-3.62,14.79-5.36,23.11l-4.23,20.26,1.08.41c5.82-14.43,11.18-29.38,17-43.81Z"/><path class="cls-3" d="M157.81,95.26c1.66,1.2,4.7,3.83,4.7,3.83s-.79,1.07-.15,3.43c1.72,8.33,3.62,14.79,5.36,23.11q2.1,10.14,4.22,20.27l-1.07.4c-5.82-14.42-11.18-29.38-17-43.8Z"/><path class="cls-3" d="M217.87,19.67l-12,5.6s-7.74,10.23-7.74,10.39c.37-.15.75-.28,1.11-.45q8.64-4.18,17.27-8.37c2.88-1.39,6.77-3.22,9.64-4.62Z"/><polygon class="cls-3" points="227.34 51.04 222.58 57.87 233.26 67.56 233.64 66.1 227.34 51.04"/><path class="cls-3" d="M57.54,35.66c0-.16-7.73-10.39-7.73-10.39l-12-5.6-8.28,2.55c2.87,1.4,6.76,3.23,9.63,4.62l17.28,8.37C56.8,35.38,57.18,35.51,57.54,35.66Z"/><polygon class="cls-3" points="33.1 57.87 28.35 51.04 22.04 66.1 22.42 67.56 33.1 57.87"/><path class="cls-3" d="M178,157.9l5.13,26.7a192.8,192.8,0,0,0,25.44-24c1.65-8,3.25-15.49,5-24.12C201.18,143.81,190,150.75,178,157.9Z"/><path class="cls-3" d="M77.55,157.9c0-.06-23.47-14.21-35.58-21.51,1.67,8.54,3.21,16.44,4.76,24.34,8.6,8,16.6,16.65,25.72,23.75l5.1-26.58Z"/><path class="cls-3" d="M92.21,191.9l-.23-.55h0l3.4,7.92c8.33,4.75,16.87,9.15,25.4,13.46,3.88,2,10.23,1.66,14.21-.33,7.51-3.73,15.44-7.33,19-9q3-1.55,5.85-3.18l3.46-8.06S92.61,192.27,92.21,191.9Z"/></g><g class="cls-4"><path class="cls-3" d="M55.38,81c3.16.57,10.38,1.87,14.11,2.47a1.14,1.14,0,0,1,.69,0l0,0L73.45,82,82,81.78l12.23,7.75,3.28,4.59,7.91-2s-5.85-8.08-8.59-11.56c-.8-1-1.43-2.23-2.72-2.85-3-1.46-15.36-7.3-18.49-8.8a2.91,2.91,0,0,0-3-.09c-4.84,3-14.05,8.8-17.49,11A.63.63,0,0,0,55.38,81Z"/><path class="cls-3" d="M199.81,81.06c-3.16.58-10.38,1.87-14.11,2.47a1.23,1.23,0,0,0-.69,0l0,0-3.29-1.38-8.56-.22L161,89.64l-3.28,4.59-7.91-2s5.85-8.09,8.59-11.56c.8-1,1.43-2.23,2.72-2.85,3-1.46,15.36-7.3,18.49-8.8a2.87,2.87,0,0,1,3-.09c4.84,3,14,8.79,17.49,11A.62.62,0,0,1,199.81,81.06Z"/><path class="cls-3" d="M105.43,92.14l-7.91,2-.14,1,3.93,7.23Q103.37,97.27,105.43,92.14Z"/><path class="cls-3" d="M234,34l-7.88-11.81-5,34.38,1.43,1.27L227.34,51,233,43.41l1.54-6.87A3.26,3.26,0,0,0,234,34Z"/><path class="cls-3" d="M21.65,34a3.22,3.22,0,0,0-.46,2.51l1.54,6.87L28.35,51l4.75,6.83,1.44-1.27-5-34.38Z"/><path class="cls-3" d="M149.76,92.25l7.91,2,.14,1-3.93,7.24Q151.82,97.37,149.76,92.25Z"/><path class="cls-3" d="M178,157.9l5.13,26.74-5.92,4.5s-4.7,3.32-9.18,6.19-8.25,4.93-8.25,4.93Z"/><path class="cls-3" d="M77.55,157.9l-5.13,26.74,5.92,4.5s4.7,3.32,9.18,6.19,8.25,4.93,8.25,4.93Z"/></g><path class="cls-3" d="M132.1,183.64v-4.58a1.55,1.55,0,0,1,1.07-1.95c1.86-.6,16.94-9.5,16.94-9.5s5.19-15.23,6.65-19.41a1.6,1.6,0,0,0-.48-1.76c-1.83-1.51-6.12-5-8.32-6.78a6.79,6.79,0,0,0-4.43-1.59q-15.72,0-31.44,0a7.86,7.86,0,0,0-3.74,1.15c-.75.46-7,5.27-9.34,7.09a1.62,1.62,0,0,0-.51,1.8l6.86,19.44s15.19,8.75,17.42,10c.76.41.62,1.33.62,1.95s0,3.86,0,3.86,0,1.58-1.22,1.83l-30.73,5.06.88,2h70.83l.85-2L133,185.13C132.23,185,132.1,183.64,132.1,183.64Z"/><polygon class="cls-3" points="221.15 56.6 225.67 25.56 226.16 22.22 198.14 35.64 221.15 56.6"/><polygon class="cls-3" points="34.54 56.6 57.55 35.64 29.53 22.22 34.54 56.6"/><path class="cls-3" d="M157.81,95.17l-.14-1L161,89.59l12.23-7.69,8.56.22L185,83.49,183.65,90l-8.56,5.52s-6.34,1.84-10.43,2.86c-1.84.47-2.15.57-2.15.57Z"/><path class="cls-3" d="M97.38,95.09l.14-1-3.28-4.56L82,81.82,73.45,82l-3.29,1.37,1.38,6.53,8.56,5.52s6.34,1.84,10.43,2.86c1.84.47,2.15.57,2.15.57Z"/><path class="cls-3" d="M22.44,67.57s0,0,0,0Z"/><path class="cls-3" d="M255,29c-1.08-2.92-2.16-5.84-3.3-8.74a15.4,15.4,0,0,0-3-4.68c-2.85-3.16-5.86-6.14-8.92-9.08a19.23,19.23,0,0,0-6.55-4A43.79,43.79,0,0,0,217.17,0h-4.09a21.7,21.7,0,0,0-8.72,1.71c-6.62,2.89-13.29,5.66-19.93,8.52a4.41,4.41,0,0,1-3.25.23c-6.14-2-12.34-3.72-18.44-5.79a37.36,37.36,0,0,0-12.45-1.95c-16,.12-32,0-47.95,0a14.9,14.9,0,0,0-4.25.6c-2.45.73-4.89,1.52-7.33,2.29-5,1.59-10.08,3.16-15.12,4.76a5.12,5.12,0,0,1-3.73-.14c-7-3-14-5.9-21-8.82A13.29,13.29,0,0,0,47.27.36,73.91,73.91,0,0,0,37.51.09,45.3,45.3,0,0,0,21.94,3.31a15.17,15.17,0,0,0-4.92,3c-2.78,2.57-5.46,5.25-8.25,7.8a14.75,14.75,0,0,0-4.26,5.8C2.76,24.86.22,29.54,0,35v5.52A40.84,40.84,0,0,0,2.34,50c.17.51.33,1,.45,1.56a28.38,28.38,0,0,0,5.67,12C9.64,65,10.68,66.51,11.84,68a3.87,3.87,0,0,1,.85,3.24c-2.23,14-4.45,28-6.88,42a19.26,19.26,0,0,0,2.12,13c2.52,4.59,5,9.23,7.33,13.93a34.08,34.08,0,0,0,7.22,10.18c3.18,2.91,6.21,6,9.34,9,6,5.75,12,11.59,18,17.43q5.41,5.29,10.77,10.66a56.94,56.94,0,0,0,5.59,5.28c3.57,2.71,7.53,4.69,11.38,6.87,6.73,3.81,13.59,7.37,20.38,11.06,6.94,3.76,13.8,7.67,20.47,11.93a7.09,7.09,0,0,0,2.91,1.05,29.2,29.2,0,0,1,3.84.48h5.26c1.21-.22,2.43-.23,3.64-.38a6.7,6.7,0,0,0,2.95-.79c6.25-3.94,12.71-7.5,19.2-11,9.29-5,18.63-9.88,27.76-15.21a43.29,43.29,0,0,0,9-6.78c1.86-1.88,3.69-3.8,5.59-5.64,5-4.82,9.87-9.72,14.83-14.55,2.36-2.31,4.71-4.63,7.1-6.9,4.66-4.43,9.26-8.93,13.89-13.39,3.49-3.37,5.62-7.76,7.91-12,2.07-3.85,3.91-7.85,6-11.72a16.45,16.45,0,0,0,2.09-10.46c-1-6.14-1.9-12.28-2.93-18.41-1.44-8.55-2.65-17.14-4.12-25.69a3.61,3.61,0,0,1,.75-3c.95-1.18,1.85-2.41,2.77-3.62,1.84-2.41,3.89-4.72,4.77-7.74,1.67-5.68,4-11.17,4.46-17.19V35C255.64,33,255.66,30.94,255,29Zm-12.8,24.34L241.41,55a31.53,31.53,0,0,1-5.33,7.54,40.81,40.81,0,0,0-2.44,3.54l-.38,1.47s5,32.39,7.74,48.59a27.5,27.5,0,0,1-.86,3.4c-6.45,17.38-19,30-31.6,41l-.1.09-.05.28A188.06,188.06,0,0,1,154,203.36l-4.56,2.14c-3.92,1.83-9.3,4.35-14.42,6.89-4.05,2-10.28,2.17-13.9.34-15.4-7.81-30.38-15.61-44.24-25.27-7.48-5.21-14.22-11.89-20.74-18.36-2.88-2.85-5.86-5.81-8.87-8.6l-.12-.07a1.12,1.12,0,0,0-.31-.1c-15.15-12.65-25.6-26.28-31.93-41.67a3.4,3.4,0,0,1-.06-1.58c0-.31.06-.62.06-.85l.08-.55c-.18.29-.29.46-.31.48,2.71-16.2,5-32.4,7.74-48.6L22,66.1C19.83,62.75,9.61,47,8.62,37.43c-.56-5.48,2.6-12.53,6-17.09C24.14,7.51,39,3.75,51.66,11c4.49,2.57,9.74,5.43,15.3,6.83a25,25,0,0,0,13.67-.28c11.78-4.08,24.54-6,39-6h4.92c19.14,0,38.94.06,57.41,8.31.83.36,2,.21,3.7-.48,3.09-1.29,6.19-2.78,9.19-4.22,6.37-3.06,13-6.23,19.72-7.54,7-1.35,14.74,1,21.29,6.51,6.78,5.69,11,13.76,11.29,21.59C247.39,41.51,244.72,47.53,242.15,53.35Z"/></g></g></svg>