<svg xmlns="http://www.w3.org/2000/svg" viewBox="0 0 16 14"><defs><style>.cls-1{fill:#f9fbfe;}.cls-2{opacity:0.6;}.cls-3{fill:#4e84c1;}</style></defs><g id="Layer_2" data-name="Layer 2"><g id="Layer_1-2" data-name="Layer 1"><polygon class="cls-1" points="0.13 2.33 0.41 1.23 1.43 0.45 3.08 0.32 4.31 0.88 7.28 0.45 10.96 0.87 11.87 0.74 13.88 0.18 15.14 0.72 15.88 2.48 15.05 4.33 15.28 7.63 13.98 10 9.87 13.2 8.35 13.82 7.48 13.82 4.2 11.92 1.63 9.26 0.41 7.35 0.8 4.97 0.97 4.56 0.29 3.45 0.13 2.33"/><g class="cls-2"><path class="cls-3" d="M14.48,4.27l-.75.93s1.21,2,1.23,2.06C14.79,6.26,14.65,5.27,14.48,4.27Z"/><path class="cls-3" d="M1,7.26S2.25,5.2,2.25,5.2L1.5,4.27C1.33,5.27,1.19,6.26,1,7.26Z"/><path class="cls-3" d="M9.36,10.16,8.2,10.8v.41l2,.33S9.63,10.66,9.36,10.16Z"/><path class="cls-3" d="M5.75,11.54l2-.33V10.8l-1.16-.64C6.34,10.66,5.75,11.54,5.75,11.54Z"/><path class="cls-3" d="M10.18,12.19s.23-.12.5-.3l.57-.38.36-.28-.35-1Z"/><path class="cls-3" d="M4.48,11.23l.36.28.57.38c.27.18.5.3.5.3l-1.09-2Z"/></g><path class="cls-3" d="M8.25,11.14v-.28c0-.07,0-.11.07-.12s1-.59,1-.59.32-.82.41-1.08a.1.1,0,0,0,0-.1l-.51-.42A.45.45,0,0,0,9,8.45H7a.56.56,0,0,0-.23.07L6.22,9a.09.09,0,0,0,0,.11l.43,1.08,1.07.61s0,.08,0,.12v.24a.11.11,0,0,1-.08.11l-1.89.31.06.12h4.36l.05-.12-1.91-.31C8.26,11.22,8.25,11.14,8.25,11.14Z"/><path class="cls-3" d="M11.36,4.36a.18.18,0,0,0-.19,0L10,4.9a.58.58,0,0,0-.17.18c-.17.21-.53.71-.53.71l.44.11h0l-.44-.11.25.63.2-.37.32.25.15,0L11,6.05l.64-.41.09-.42.66-.12s0,0,0-.07Z"/><path class="cls-3" d="M13.79,1.88l-.45-.13-.74.34-.5.56,1.34,1.22.35-.35.35-.47.09-.42a.22.22,0,0,0,0-.16Z"/><path class="cls-3" d="M3.38,2.09l-.74-.34-.44.13-.42.59a.22.22,0,0,0,0,.16l.09.42.35.47.35.35L3.88,2.65Z"/><path class="cls-3" d="M6.16,6.05l.2.36.25-.63-.44.11.44-.11s-.36-.5-.53-.71S6,4.93,5.91,4.9L4.78,4.36c-.07,0-.13-.05-.19,0L3.52,5s0,.07,0,.07l.66.12.1.43.63.41.77.21.16,0Z"/><path class="cls-3" d="M16,2.25s0-.08,0-.12a1.28,1.28,0,0,0-.05-.27l-.21-.54a1,1,0,0,0-.2-.32C15.33.79,15.13.59,15,.43a1.37,1.37,0,0,0-.44-.27,2.86,2.86,0,0,0-1-.16h-.25a1.59,1.59,0,0,0-.59.11c-.23.11-.46.2-.7.3l-.52.23a.17.17,0,0,1-.12,0L10.86.51,10.18.29A2.69,2.69,0,0,0,9.37.17H6.42a.92.92,0,0,0-.29,0L5.8.31l-.31.1L4.74.64a.19.19,0,0,1-.15,0l-1-.42L3.3.1A.88.88,0,0,0,3,0a4.2,4.2,0,0,0-.61,0,2.7,2.7,0,0,0-1,.2,1,1,0,0,0-.34.21L.85.65.58.9a1,1,0,0,0-.29.41L.2,1.53a2.25,2.25,0,0,0-.2.74v.35a3.39,3.39,0,0,0,.13.57l0,.05,0,.08a1.81,1.81,0,0,0,.37.79l.11.14a.64.64,0,0,0,.1.13.1.1,0,0,1,0,.09v.09C.64,5.39.5,6.22.36,7.05a1.28,1.28,0,0,0,.14.88c.16.28.31.57.45.85a2.24,2.24,0,0,0,.47.66l.35.33L2,10l1.06,1,0,0,.67.65.07.08a2.33,2.33,0,0,0,.28.26,4.85,4.85,0,0,0,.57.35l.15.08.82.45.43.23c.5.27.9.5,1.25.73a.63.63,0,0,0,.23.08h.09a.5.5,0,0,1,.16,0h.35l.12,0h.1a.47.47,0,0,0,.22-.07c.4-.24.8-.47,1.18-.67l.32-.17c.46-.25.93-.5,1.39-.77a2.43,2.43,0,0,0,.58-.43l.13-.13.21-.22.5-.48.42-.41.12-.12.31-.3.53-.51.33-.31a3,3,0,0,0,.46-.68l.05-.09.2-.39c.05-.11.11-.22.17-.33a1.21,1.21,0,0,0,.14-.73L15.47,6l-.12-.72c0-.28-.09-.57-.14-.85a.13.13,0,0,1,0-.09,1.09,1.09,0,0,0,.13-.17l.1-.12a1.33,1.33,0,0,0,.26-.45l.09-.27A3.51,3.51,0,0,0,16,2.55Zm-1.08,1.1-.05.1a1.5,1.5,0,0,1-.31.43c-.06.07-.15.22-.16.23l0,.16v0l.47,3a.59.59,0,0,1,0,.17,6.29,6.29,0,0,1-1.92,2.47l0,0h0a11.47,11.47,0,0,1-3.29,2.55l-.28.13-.89.43a1,1,0,0,1-.75,0,23.14,23.14,0,0,1-2.71-1.54,10.2,10.2,0,0,1-1.26-1.12c-.18-.17-.36-.36-.56-.54l0,0A6.47,6.47,0,0,1,1.15,7.37a.11.11,0,0,1,0,0v0l.08-.54h0l.15-1,.24-1.49v0l0-.12v0a5.18,5.18,0,0,1-.81-1.7,1.65,1.65,0,0,1,.34-1A1.61,1.61,0,0,1,3.24.91a4.26,4.26,0,0,0,1,.43,1.64,1.64,0,0,0,.91,0A7.06,7.06,0,0,1,7.44,1h.35a8.51,8.51,0,0,1,3.49.5.38.38,0,0,0,.32,0l.57-.26A5.3,5.3,0,0,1,13.35.72a1.5,1.5,0,0,1,1.22.37,1.77,1.77,0,0,1,.65,1.23A2.61,2.61,0,0,1,14.92,3.35Z"/></g></g></svg>